<svg xmlns="http://www.w3.org/2000/svg" xmlns:xlink="http://www.w3.org/1999/xlink" width="48" height="48" fill="none" version="1.1" viewBox="0 0 256 256">
  <g transform="translate(0, 0)">
    <svg xmlns="http://www.w3.org/2000/svg" width="256" height="256" viewBox="0 0 256 256">
      <title>AI Icon</title>
      <rect width="256" height="256" fill="#242938" rx="60"/>
      <defs>
        <linearGradient id="aiGradient" x1="47.64" x2="617.892" y1="96.449" y2="96.449" gradientUnits="userSpaceOnUse">
          <stop stop-color="#82E97A"/>
          <stop offset="1" stop-color="#21DEBB"/>
        </linearGradient>
      </defs>
      <path fill="url(#aiGradient)" d="M115.503 36.076C113.25 31.516 108.397 29 103.372 29c-4.853 0-9.705 2.516-11.785 7.076l-42.804 86.482c-2.946 5.818 0 12.893 6.585 15.409c1.733.786 3.466 1.101 5.2 1.101c5.025 0 9.704-2.516 11.957-6.919l5.892-11.95h50.256l5.892 11.95c2.08 4.403 6.932 6.919 11.784 6.919c1.733 0 3.64-.315 5.373-1.101c6.412-2.516 9.358-9.591 6.412-15.409zm2.946 63.367H88.641l14.731-30.347z"/>
      <path fill="url(#aiGradient)" d="M195.046 44.41c0 6.29-5.545 11.32-12.477 11.32s-12.651-5.03-12.651-11.32c0-6.133 5.719-11.164 12.651-11.164s12.477 5.031 12.477 11.164m-12.477 94.658c-7.625 0-13.691-5.661-13.691-12.422V72.87c0-6.761 6.066-12.422 13.691-12.422c7.451 0 13.517 5.66 13.517 12.422v53.776c0 6.761-6.066 12.422-13.517 12.422"/>
    </svg>
  </g>
</svg>
