<svg width="256" height="256" xmlns="http://www.w3.org/2000/svg">
  <title>aiscript-dark</title>
  <g>
    <title>Layer 1</title>
    <g id="svg_1">
      <defs transform="translate(-1 0)">
        <clipPath clipPathUnits="userSpaceOnUse" id="svg_43">
          <path d="m-1,0l256,0l0,256l-256,0l0,-256z" id="svg_2" />
        </clipPath>
        <linearGradient
          gradientTransform="matrix(0.45365434885025024,0,0,0.45365434885025024,34.95985794067383,42.23649597167969)"
          gradientUnits="userSpaceOnUse"
          y2="344"
          x2="235"
          y1="32.9999"
          x1="6.00017"
          id="svg_6"
        >
          <stop stop-color="#41D1FF" />
          <stop stop-color="#BD34FE" offset="1" />
        </linearGradient>
        <linearGradient
          gradientTransform="matrix(0.45365434885025024,0,0,0.45365434885025024,34.95985794067383,42.23649597167969)"
          gradientUnits="userSpaceOnUse"
          y2="292.989"
          x2="236.076"
          y1="8.81818"
          x1="194.651"
          id="svg_5"
        >
          <stop stop-color="#FFEA83" />
          <stop stop-color="#FFDD35" offset="0.08333" />
          <stop stop-color="#FFA800" offset="1" />
        </linearGradient>
      </defs>
      <g clip-path="url(#svg_43)" id="svg_42">
        <g id="Layer">
          <path
            fill="#242938"
            class="s0"
            d="m195,0l-136,0c-33.1,0 -60,26.9 -60,60l0,136c0,33.1 26.9,60 60,60l136,0c33.1,0 60,-26.9 60,-60l0,-136c0,-33.1 -26.9,-60 -60,-60z"
            id="svg_44"
          />
        </g>
      </g>
    </g>
    <g stroke="null">
      <path
        stroke="null"
        fill="url(#svg_6)"
        d="m216.25871,69.24008l-83.47148,149.26151c-1.72343,3.08167 -6.1511,3.09982 -7.90039,0.03312l-85.12655,-149.28025c-1.90572,-3.34193 0.95199,-7.38994 4.73905,-6.71304l83.5608,14.93602c0.53304,0.09527 1.07879,0.09436 1.61183,-0.00277l81.81337,-14.91184c3.7744,-0.68792 6.64558,3.32873 4.77335,6.67725z"
      />
      <path
        stroke="null"
        fill="url(#svg_5)"
        d="m167.86468,42.95073l-61.77138,12.10386c-1.01528,0.19893 -1.76698,1.05933 -1.82823,2.09189l-3.79981,64.17557c-0.08937,1.51158 1.29881,2.68473 2.7741,2.34449l17.19803,-3.96902c1.60911,-0.37109 3.06307,1.04613 2.73236,2.66431l-5.10951,25.02039c-0.34387,1.68396 1.23712,3.12386 2.88161,2.62439l10.62231,-3.2273c1.64677,-0.49993 3.22911,0.94405 2.8807,2.62938l-8.11996,39.30143c-0.50809,2.45835 2.76185,3.7989 4.12553,1.69122l0.91094,-1.40769l50.33476,-100.45176c0.84289,-1.68192 -0.61062,-3.59975 -2.4579,-3.24327l-17.7025,3.41656c-1.66355,0.32073 -3.07895,-1.2285 -2.60942,-2.85607l11.55412,-40.05378c0.46999,-1.63032 -0.95041,-3.18089 -2.61577,-2.85461z"
      />
    </g>
  </g>
</svg>
