<svg xmlns="http://www.w3.org/2000/svg" width="256" height="256" fill="none" viewBox="0 0 256 256"><g clip-path="url(#clip0_33_851)"><path fill="#242938" d="M196 0H60C26.8629 0 0 26.8629 0 60V196C0 229.137 26.8629 256 60 256H196C229.137 256 256 229.137 256 196V60C256 26.8629 229.137 0 196 0Z"/><g clip-path="url(#clip1_33_851)"><path fill="#1697F6" d="M129.353 102.949L94.4607 163.518L127.5 220.891L171.26 144.946L215 69H148.902L129.353 102.949Z"/><path fill="#AEDDFF" d="M83.7599 144.946L86.0515 148.94L118.692 92.265L132.103 69H127.5H40L83.7599 144.946Z"/><path fill="#1867C0" d="M148.902 69C165.441 123.538 127.5 220.891 127.5 220.891L94.4607 163.518L148.902 69Z"/><path fill="#7BC6FF" d="M132.103 69C62.4183 69 86.0518 148.94 86.0518 148.94L132.103 69Z"/></g></g><defs><clipPath id="clip0_33_851"><rect width="256" height="256" fill="#fff"/></clipPath><clipPath id="clip1_33_851"><rect width="175" height="152" fill="#fff" transform="translate(40 69)"/></clipPath></defs></svg>