<svg xmlns="http://www.w3.org/2000/svg" xmlns:xlink="http://www.w3.org/1999/xlink" version="1.1" viewBox="4.57 7.93 241.16 38.06">
  <g id="surface1">
<path style=" stroke:none;fill-rule:nonzero;fill:rgb(32.549021%,63.921571%,9.411765%);fill-opacity:1;" d="M 124.648438 45.839844 C 132.789062 45.839844 138.214844 40.550781 138.214844 31.628906 L 138.214844 8.800781 L 129.308594 8.800781 L 129.308594 31.269531 C 129.308594 35.421875 127.820312 37.480469 124.699219 37.480469 C 121.683594 37.480469 120.390625 35.375 120.390625 31.269531 L 120.390625 8.800781 L 111.4375 8.800781 L 111.4375 31.628906 C 111.449219 40.75 116.40625 45.839844 124.648438 45.839844 Z M 124.648438 45.839844 "/>
<path style=" stroke:none;fill-rule:nonzero;fill:rgb(32.549021%,63.921571%,9.411765%);fill-opacity:1;" d="M 162.078125 10.796875 C 159.617188 9.058594 156.703125 8.800781 152.863281 8.800781 L 140.785156 8.800781 L 140.785156 45.273438 L 149.691406 45.273438 L 149.691406 33.527344 L 152.25 33.527344 C 156.039062 33.527344 158.902344 33.265625 161.214844 31.886719 C 164.84375 29.679688 166.996094 25.785156 166.996094 21.0625 C 166.996094 16.492188 165.3125 13.054688 162.078125 10.796875 Z M 151.4375 25.625 L 149.800781 25.625 L 149.800781 16.960938 L 152.152344 16.960938 C 156.097656 16.960938 157.992188 18.191406 157.992188 21.210938 C 157.980469 24.492188 155.839844 25.625 151.4375 25.625 Z M 151.4375 25.625 "/>
<path style=" stroke:none;fill-rule:nonzero;fill:rgb(32.549021%,63.921571%,9.411765%);fill-opacity:1;" d="M 216.246094 24.960938 L 229.8125 45.273438 L 237.636719 45.273438 L 237.636719 8.800781 L 228.742188 8.800781 L 228.742188 29.0625 L 215.371094 8.800781 L 207.339844 8.800781 L 207.339844 45.273438 L 216.246094 45.273438 Z M 216.246094 24.960938 "/>
<path style=" stroke:none;fill-rule:nonzero;fill:rgb(32.549021%,63.921571%,9.411765%);fill-opacity:1;" d="M 103.503906 13.519531 C 99.972656 10.03125 95.375 8.136719 90.503906 8.136719 C 85.335938 8.136719 80.824219 9.933594 77.242188 13.472656 C 73.664062 17.007812 71.710938 21.632812 71.710938 26.660156 C 71.710938 32.046875 73.457031 36.558594 76.875 40.207031 C 80.453125 44.003906 85.066406 45.949219 90.441406 45.949219 C 95.507812 45.949219 100.320312 43.953125 103.847656 40.253906 C 107.28125 36.71875 109.125 32.046875 109.125 26.820312 C 109.136719 21.828125 107.195312 17.15625 103.503906 13.519531 Z M 90.453125 36.914062 C 85.4375 36.914062 80.886719 32.503906 80.886719 26.757812 C 80.886719 21.421875 85.128906 17.167969 90.566406 17.167969 C 95.683594 17.167969 99.9375 21.421875 99.9375 26.757812 C 99.925781 32.699219 95.683594 36.914062 90.453125 36.914062 Z M 90.453125 36.914062 "/>
<path style=" stroke:none;fill-rule:nonzero;fill:rgb(32.549021%,63.921571%,9.411765%);fill-opacity:1;" d="M 199.960938 13.519531 C 196.429688 10.03125 191.820312 8.136719 186.960938 8.136719 C 181.78125 8.136719 177.28125 9.933594 173.699219 13.472656 C 170.121094 17.007812 168.164062 21.632812 168.164062 26.660156 C 168.164062 32.046875 169.914062 36.558594 173.332031 40.207031 C 176.921875 44.003906 181.523438 45.949219 186.898438 45.949219 C 191.964844 45.949219 196.777344 43.953125 200.304688 40.253906 C 203.738281 36.71875 205.582031 32.046875 205.582031 26.820312 C 205.59375 21.828125 203.652344 17.15625 199.960938 13.519531 Z M 186.910156 36.914062 C 181.890625 36.914062 177.339844 32.503906 177.339844 26.757812 C 177.339844 21.421875 181.597656 17.167969 187.023438 17.167969 C 192.136719 17.167969 196.394531 21.421875 196.394531 26.757812 C 196.382812 32.699219 192.125 36.914062 186.910156 36.914062 Z M 186.910156 36.914062 "/>
<path style=" stroke:none;fill-rule:nonzero;fill:rgb(32.549021%,63.921571%,9.411765%);fill-opacity:1;" d="M 9.730469 40.195312 C 13.308594 43.988281 17.871094 45.988281 23.246094 45.988281 C 29.445312 45.988281 35.277344 42.90625 38.757812 37.828125 C 40.859375 34.746094 41.882812 31.257812 41.882812 27.152344 C 41.882812 26.390625 41.832031 25.5625 41.78125 24.738281 L 21.046875 24.738281 L 21.046875 32.023438 L 31.4375 32.023438 C 29.644531 35.203125 26.628906 36.953125 23.246094 36.953125 C 18.230469 36.953125 13.726562 32.488281 13.726562 26.683594 C 13.726562 21.445312 17.921875 17.09375 23.246094 17.09375 C 26.113281 17.09375 28.460938 18.277344 30.726562 20.632812 L 40.859375 20.632812 C 37.945312 12.832031 31.132812 8.0625 23.359375 8.0625 C 18.191406 8.0625 13.691406 9.910156 10.097656 13.445312 C 6.519531 16.984375 4.574219 21.605469 4.574219 26.636719 C 4.5625 32.035156 6.296875 36.546875 9.730469 40.195312 Z M 9.730469 40.195312 "/>
<path style=" stroke:none;fill-rule:nonzero;fill:rgb(32.549021%,63.921571%,9.411765%);fill-opacity:1;" d="M 62.089844 32.75 C 67.257812 31.308594 70.332031 26.90625 70.332031 21.003906 C 70.332031 16.492188 68.644531 13.054688 65.410156 10.796875 C 62.953125 9.058594 60.035156 8.800781 56.199219 8.800781 L 44.121094 8.800781 L 44.121094 45.273438 L 53.023438 45.273438 L 53.023438 33.527344 L 59.988281 45.273438 L 70.996094 45.273438 Z M 54.773438 25.625 L 53.039062 25.625 L 53.039062 16.960938 L 55.496094 16.960938 C 59.433594 16.960938 61.328125 18.191406 61.328125 21.210938 C 61.328125 24.492188 59.175781 25.625 54.773438 25.625 Z M 54.773438 25.625 "/>
<path style=" stroke:none;fill-rule:nonzero;fill:rgb(32.549021%,63.921571%,9.411765%);fill-opacity:1;" d="M 242.988281 13.421875 C 243.75 13.421875 244.402344 13.152344 244.929688 12.609375 C 245.472656 12.066406 245.730469 11.414062 245.730469 10.660156 C 245.730469 9.898438 245.457031 9.257812 244.929688 8.726562 C 244.402344 8.195312 243.75 7.925781 242.988281 7.925781 C 242.234375 7.925781 241.585938 8.195312 241.054688 8.726562 C 240.515625 9.269531 240.257812 9.910156 240.257812 10.660156 C 240.257812 11.425781 240.527344 12.078125 241.054688 12.609375 C 241.585938 13.152344 242.222656 13.421875 242.988281 13.421875 Z M 241.324219 8.984375 C 241.792969 8.515625 242.347656 8.28125 243 8.28125 C 243.652344 8.28125 244.214844 8.515625 244.671875 8.984375 C 245.125 9.441406 245.359375 10.007812 245.359375 10.660156 C 245.359375 11.316406 245.125 11.882812 244.671875 12.351562 C 244.214844 12.820312 243.664062 13.054688 243 13.054688 C 242.347656 13.054688 241.78125 12.820312 241.324219 12.351562 C 240.871094 11.882812 240.636719 11.328125 240.636719 10.660156 C 240.636719 10.007812 240.859375 9.453125 241.324219 8.984375 Z M 241.324219 8.984375 "/>
<path style=" stroke:none;fill-rule:nonzero;fill:rgb(32.549021%,63.921571%,9.411765%);fill-opacity:1;" d="M 244.203125 12.117188 C 244.191406 12.089844 244.179688 12.042969 244.179688 11.957031 C 244.179688 11.882812 244.167969 11.796875 244.167969 11.734375 L 244.167969 11.511719 C 244.167969 11.363281 244.117188 11.203125 244.007812 11.042969 C 243.898438 10.882812 243.722656 10.785156 243.492188 10.746094 C 243.675781 10.722656 243.824219 10.675781 243.921875 10.601562 C 244.117188 10.476562 244.214844 10.265625 244.214844 10.007812 C 244.214844 9.625 244.054688 9.367188 243.75 9.246094 C 243.578125 9.171875 243.304688 9.132812 242.925781 9.132812 L 241.867188 9.132812 L 241.867188 12.152344 L 242.394531 12.152344 L 242.394531 10.96875 L 242.8125 10.96875 C 243.097656 10.96875 243.292969 11.007812 243.40625 11.070312 C 243.601562 11.179688 243.6875 11.414062 243.6875 11.757812 L 243.6875 11.992188 L 243.699219 12.089844 C 243.699219 12.105469 243.699219 12.117188 243.699219 12.128906 C 243.699219 12.140625 243.699219 12.152344 243.710938 12.152344 L 244.203125 12.152344 Z M 243.40625 10.527344 C 243.292969 10.574219 243.121094 10.585938 242.902344 10.585938 L 242.421875 10.585938 L 242.421875 9.492188 L 242.875 9.492188 C 243.171875 9.492188 243.378906 9.527344 243.515625 9.601562 C 243.652344 9.675781 243.710938 9.824219 243.710938 10.046875 C 243.710938 10.292969 243.601562 10.453125 243.40625 10.527344 Z M 243.40625 10.527344 "/>
</g>

</svg>