<svg xmlns="http://www.w3.org/2000/svg" xmlns:xlink="http://www.w3.org/1999/xlink" version="1.1" viewBox="0 0 244 98.04"><g id="surface1"><path style="stroke:none;fill-rule:nonzero;fill:#1f70c1;fill-opacity:1" d="M 0 91.210938 L 47.441406 91.210938 L 47.441406 98.011719 L 0 98.011719 Z M 0 91.210938"/><path style="stroke:none;fill-rule:nonzero;fill:#1f70c1;fill-opacity:1" d="M 0 78.164062 L 47.441406 78.164062 L 47.441406 84.988281 L 0 84.988281 Z M 0 78.164062"/><path style="stroke:none;fill-rule:nonzero;fill:#1f70c1;fill-opacity:1" d="M 13.535156 65.140625 L 33.882812 65.140625 L 33.882812 71.964844 L 13.535156 71.964844 Z M 13.535156 65.140625"/><path style="stroke:none;fill-rule:nonzero;fill:#1f70c1;fill-opacity:1" d="M 13.535156 52.117188 L 33.882812 52.117188 L 33.882812 58.941406 L 13.535156 58.941406 Z M 13.535156 52.117188"/><path style="stroke:none;fill-rule:nonzero;fill:#1f70c1;fill-opacity:1" d="M 13.535156 39.09375 L 33.882812 39.09375 L 33.882812 45.917969 L 13.535156 45.917969 Z M 13.535156 39.09375"/><path style="stroke:none;fill-rule:nonzero;fill:#1f70c1;fill-opacity:1" d="M 13.535156 26.046875 L 33.882812 26.046875 L 33.882812 32.871094 L 13.535156 32.871094 Z M 13.535156 26.046875"/><path style="stroke:none;fill-rule:nonzero;fill:#1f70c1;fill-opacity:1" d="M 0 13.023438 L 47.441406 13.023438 L 47.441406 19.847656 L 0 19.847656 Z M 0 13.023438"/><path style="stroke:none;fill-rule:nonzero;fill:#1f70c1;fill-opacity:1" d="M 0 0 L 47.441406 0 L 47.441406 6.828125 L 0 6.828125 Z M 0 0"/><path style="stroke:none;fill-rule:nonzero;fill:#1f70c1;fill-opacity:1" d="M 54.207031 84.988281 L 127.171875 84.988281 C 128.402344 82.882812 129.324219 80.582031 129.878906 78.164062 L 54.207031 78.164062 Z M 54.207031 84.988281"/><path style="stroke:none;fill-rule:nonzero;fill:#1f70c1;fill-opacity:1" d="M 121.492188 52.117188 L 67.765625 52.117188 L 67.765625 58.941406 L 127.171875 58.941406 C 125.625 56.328125 123.714844 54.027344 121.492188 52.117188 Z M 121.492188 52.117188"/><path style="stroke:none;fill-rule:nonzero;fill:#1f70c1;fill-opacity:1" d="M 67.765625 39.09375 L 67.765625 45.917969 L 121.492188 45.917969 C 123.765625 44.007812 125.671875 41.707031 127.171875 39.09375 Z M 67.765625 39.09375"/><path style="stroke:none;fill-rule:nonzero;fill:#1f70c1;fill-opacity:1" d="M 127.171875 13.023438 L 54.207031 13.023438 L 54.207031 19.847656 L 129.878906 19.847656 C 129.25 17.429688 128.332031 15.128906 127.171875 13.023438 Z M 127.171875 13.023438"/><path style="stroke:none;fill-rule:nonzero;fill:#1f70c1;fill-opacity:1" d="M 104.742188 0 L 54.207031 0 L 54.207031 6.828125 L 122.167969 6.828125 C 117.625 2.613281 111.460938 0 104.742188 0 Z M 104.742188 0"/><path style="stroke:none;fill-rule:nonzero;fill:#1f70c1;fill-opacity:1" d="M 67.765625 26.046875 L 88.09375 26.046875 L 88.09375 32.871094 L 67.765625 32.871094 Z M 67.765625 26.046875"/><path style="stroke:none;fill-rule:nonzero;fill:#1f70c1;fill-opacity:1" d="M 108.441406 32.871094 L 129.710938 32.871094 C 130.3125 30.695312 130.628906 28.394531 130.628906 26.046875 L 108.441406 26.046875 Z M 108.441406 32.871094"/><path style="stroke:none;fill-rule:nonzero;fill:#1f70c1;fill-opacity:1" d="M 67.765625 65.140625 L 88.09375 65.140625 L 88.09375 71.964844 L 67.765625 71.964844 Z M 67.765625 65.140625"/><path style="stroke:none;fill-rule:nonzero;fill:#1f70c1;fill-opacity:1" d="M 108.441406 65.140625 L 108.441406 71.964844 L 130.628906 71.964844 C 130.628906 69.617188 130.3125 67.320312 129.710938 65.140625 Z M 108.441406 65.140625"/><path style="stroke:none;fill-rule:nonzero;fill:#1f70c1;fill-opacity:1" d="M 54.207031 97.964844 L 104.742188 98.035156 C 111.511719 98.035156 117.625 95.421875 122.191406 91.210938 L 54.207031 91.210938 Z M 54.207031 97.964844"/><path style="stroke:none;fill-rule:nonzero;fill:#1f70c1;fill-opacity:1" d="M 135.558594 91.210938 L 169.441406 91.210938 L 169.441406 98.011719 L 135.558594 98.011719 Z M 135.558594 91.210938"/><path style="stroke:none;fill-rule:nonzero;fill:#1f70c1;fill-opacity:1" d="M 135.558594 78.164062 L 169.441406 78.164062 L 169.441406 84.988281 L 135.558594 84.988281 Z M 135.558594 78.164062"/><path style="stroke:none;fill-rule:nonzero;fill:#1f70c1;fill-opacity:1" d="M 149.09375 65.140625 L 169.441406 65.140625 L 169.441406 71.964844 L 149.09375 71.964844 Z M 149.09375 65.140625"/><path style="stroke:none;fill-rule:nonzero;fill:#1f70c1;fill-opacity:1" d="M 149.09375 52.117188 L 169.441406 52.117188 L 169.441406 58.941406 L 149.09375 58.941406 Z M 149.09375 52.117188"/><path style="stroke:none;fill-rule:nonzero;fill:#1f70c1;fill-opacity:1" d="M 178.867188 13.023438 L 135.558594 13.023438 L 135.558594 19.847656 L 181.210938 19.847656 Z M 178.867188 13.023438"/><path style="stroke:none;fill-rule:nonzero;fill:#1f70c1;fill-opacity:1" d="M 174.371094 0 L 135.558594 0 L 135.558594 6.828125 L 176.714844 6.828125 Z M 174.371094 0"/><path style="stroke:none;fill-rule:nonzero;fill:#1f70c1;fill-opacity:1" d="M 210.09375 91.210938 L 244 91.210938 L 244 98.011719 L 210.09375 98.011719 Z M 210.09375 91.210938"/><path style="stroke:none;fill-rule:nonzero;fill:#1f70c1;fill-opacity:1" d="M 210.09375 78.164062 L 244 78.164062 L 244 84.988281 L 210.09375 84.988281 Z M 210.09375 78.164062"/><path style="stroke:none;fill-rule:nonzero;fill:#1f70c1;fill-opacity:1" d="M 210.09375 65.140625 L 230.441406 65.140625 L 230.441406 71.964844 L 210.09375 71.964844 Z M 210.09375 65.140625"/><path style="stroke:none;fill-rule:nonzero;fill:#1f70c1;fill-opacity:1" d="M 210.09375 52.117188 L 230.441406 52.117188 L 230.441406 58.941406 L 210.09375 58.941406 Z M 210.09375 52.117188"/><path style="stroke:none;fill-rule:nonzero;fill:#1f70c1;fill-opacity:1" d="M 210.09375 45.917969 L 230.441406 45.917969 L 230.441406 39.09375 L 191.675781 39.09375 L 189.765625 44.613281 L 187.859375 39.09375 L 149.09375 39.09375 L 149.09375 45.917969 L 169.441406 45.917969 L 169.441406 39.648438 L 171.59375 45.917969 L 207.941406 45.917969 L 210.09375 39.648438 Z M 210.09375 45.917969"/><path style="stroke:none;fill-rule:nonzero;fill:#1f70c1;fill-opacity:1" d="M 230.441406 26.046875 L 196.171875 26.046875 L 193.828125 32.871094 L 230.441406 32.871094 Z M 230.441406 26.046875"/><path style="stroke:none;fill-rule:nonzero;fill:#1f70c1;fill-opacity:1" d="M 205.1875 0 L 202.84375 6.828125 L 244 6.828125 L 244 0 Z M 205.1875 0"/><path style="stroke:none;fill-rule:nonzero;fill:#1f70c1;fill-opacity:1" d="M 189.765625 97.964844 L 192.109375 91.210938 L 187.421875 91.210938 Z M 189.765625 97.964844"/><path style="stroke:none;fill-rule:nonzero;fill:#1f70c1;fill-opacity:1" d="M 185.273438 84.988281 L 194.261719 84.988281 L 196.679688 78.164062 L 182.878906 78.164062 Z M 185.273438 84.988281"/><path style="stroke:none;fill-rule:nonzero;fill:#1f70c1;fill-opacity:1" d="M 180.703125 71.964844 L 198.828125 71.964844 L 201.222656 65.140625 L 178.3125 65.140625 Z M 180.703125 71.964844"/><path style="stroke:none;fill-rule:nonzero;fill:#1f70c1;fill-opacity:1" d="M 176.160156 58.941406 L 203.398438 58.941406 L 205.71875 52.117188 L 173.816406 52.117188 Z M 176.160156 58.941406"/><path style="stroke:none;fill-rule:nonzero;fill:#1f70c1;fill-opacity:1" d="M 149.09375 32.871094 L 185.707031 32.871094 L 183.363281 26.046875 L 149.09375 26.046875 Z M 149.09375 32.871094"/><path style="stroke:none;fill-rule:nonzero;fill:#1f70c1;fill-opacity:1" d="M 198.347656 19.847656 L 244 19.847656 L 244 13.023438 L 200.667969 13.023438 Z M 198.347656 19.847656"/></g></svg>