<svg xmlns="http://www.w3.org/2000/svg" xmlns:xlink="http://www.w3.org/1999/xlink" version="1.1" viewBox="0 0.07 244 95.86">
  <g id="surface1">
<path style=" stroke:none;fill-rule:nonzero;fill:rgb(89.019608%,13.725491%,23.921569%);fill-opacity:1;" d="M 0 0.0703125 L 95.722656 0.0703125 L 95.722656 48.960938 L 0 48.960938 Z M 0 0.0703125 "/>
<path style=" stroke:none;fill-rule:nonzero;fill:rgb(0%,0%,0%);fill-opacity:1;" d="M 0 48.003906 L 95.722656 48.003906 L 95.722656 95.929688 L 0 95.929688 Z M 0 48.003906 "/>
<path style=" stroke:none;fill-rule:nonzero;fill:rgb(100%,100%,100%);fill-opacity:1;" d="M 16.726562 45.089844 L 79.003906 45.089844 L 79.003906 50.917969 L 16.726562 50.917969 Z M 16.726562 45.089844 "/>
<path style=" stroke:none;fill-rule:nonzero;fill:rgb(0%,0%,0%);fill-opacity:1;" d="M 124.636719 76.765625 L 124.636719 19.566406 L 135.21875 19.566406 L 135.21875 46.257812 L 163.933594 19.566406 L 176.957031 19.566406 L 147.402344 47.097656 L 178.175781 76.765625 L 163.933594 76.765625 L 135.21875 49.003906 L 135.21875 76.765625 Z M 124.636719 76.765625 "/>
<path style=" stroke:none;fill-rule:nonzero;fill:rgb(0%,0%,0%);fill-opacity:1;" d="M 236.078125 47.097656 C 241.105469 49.6875 244 54.492188 244 59.984375 C 244 69.445312 237.148438 76.765625 224.046875 76.765625 L 186.195312 76.765625 L 186.195312 19.5625 L 223.816406 19.5625 C 234.328125 19.5625 241.941406 25.96875 241.941406 35.65625 C 241.941406 40.613281 239.808594 44.199219 236.078125 47.097656 M 224.429688 43.128906 C 229.222656 43.128906 231.433594 39.773438 231.433594 36.191406 C 231.433594 32.226562 228.917969 29.023438 223.816406 29.023438 L 196.703125 29.023438 L 196.703125 43.128906 Z M 233.03125 59.984375 C 233.03125 55.179688 230.519531 52.589844 225.113281 52.589844 L 196.703125 52.589844 L 196.703125 67.304688 L 223.816406 67.304688 C 230.140625 67.304688 233.03125 64.5625 233.03125 59.984375 "/>
</g>

</svg>