<svg xmlns="http://www.w3.org/2000/svg" xmlns:xlink="http://www.w3.org/1999/xlink" version="1.1" viewBox="1.31 0 241.35 52"><g id="surface1"><path style="stroke:none;fill-rule:nonzero;fill:#00843d;fill-opacity:1" d="M 73.28125 12.453125 L 82.347656 23.441406 L 75.941406 23.441406 L 67.804688 13.71875 L 67.804688 23.441406 L 62.660156 23.441406 L 62.660156 2.769531 L 67.804688 2.769531 L 67.804688 12.109375 L 67.84375 12.109375 L 74.347656 2.769531 L 79.964844 2.769531 L 73.28125 12.453125"/><path style="stroke:none;fill-rule:nonzero;fill:#00843d;fill-opacity:1" d="M 98.539062 15.609375 C 98.539062 9.628906 93.589844 7.433594 89.808594 7.433594 C 85.210938 7.433594 80.984375 10.214844 80.984375 15.558594 C 80.984375 20.476562 84.714844 23.734375 89.808594 23.734375 C 93.207031 23.734375 98.539062 21.832031 98.539062 15.609375 M 93.296875 15.519531 C 93.296875 18.917969 92.085938 20.820312 89.808594 20.820312 C 87.972656 20.820312 86.21875 19.648438 86.21875 15.558594 C 86.21875 12.007812 87.679688 10.359375 89.808594 10.359375 C 92.238281 10.410156 93.296875 12.453125 93.296875 15.519531 Z M 93.296875 15.519531"/><path style="stroke:none;fill-rule:nonzero;fill:#00843d;fill-opacity:1" d="M 117.972656 15.609375 C 117.972656 9.628906 113.03125 7.433594 109.25 7.433594 C 104.644531 7.433594 100.425781 10.214844 100.425781 15.558594 C 100.425781 20.476562 104.160156 23.734375 109.25 23.734375 C 112.691406 23.734375 117.972656 21.832031 117.972656 15.609375 M 112.738281 15.519531 C 112.738281 18.917969 111.53125 20.820312 109.25 20.820312 C 107.40625 20.820312 105.660156 19.648438 105.660156 15.558594 C 105.660156 12.007812 107.113281 10.359375 109.25 10.359375 C 111.722656 10.410156 112.738281 12.453125 112.738281 15.519531 Z M 112.738281 15.519531"/><path style="stroke:none;fill-rule:nonzero;fill:#00843d;fill-opacity:1" d="M 125.394531 7.777344 L 120.496094 7.777344 L 120.496094 30.007812 L 125.394531 30.007812 L 125.394531 22.664062 C 126.554688 23.351562 128.007812 23.734375 129.417969 23.734375 C 134.027344 23.734375 137.074219 20.476562 137.074219 15.417969 C 137.074219 10.894531 133.875 7.433594 129.851562 7.433594 C 128.160156 7.433594 126.796875 7.972656 125.394531 9.09375 L 125.394531 7.777344 M 125.394531 12.25 C 126.605469 11.28125 127.382812 10.988281 128.449219 10.988281 C 130.769531 10.988281 132.132812 12.746094 132.132812 15.761719 C 132.132812 18.675781 130.628906 20.527344 128.257812 20.527344 C 127.28125 20.527344 126.414062 20.234375 125.445312 19.503906 L 125.445312 12.25 Z M 125.394531 12.25"/><path style="stroke:none;fill-rule:nonzero;fill:#00843d;fill-opacity:1" d="M 154.921875 18.574219 C 152.640625 20.234375 151.089844 20.820312 149.144531 20.820312 C 146.046875 20.820312 144.152344 19.160156 143.960938 16.390625 L 155.164062 16.390625 C 155.40625 10.703125 151.664062 7.484375 147.117188 7.484375 C 142.316406 7.484375 138.867188 10.894531 138.867188 15.660156 C 138.867188 20.570312 142.40625 23.734375 147.933594 23.734375 C 149.144531 23.734375 152.109375 23.734375 154.921875 21.691406 L 154.921875 18.574219 M 144.0625 13.859375 C 144.304688 11.671875 145.511719 10.410156 147.449219 10.410156 C 149.34375 10.410156 150.65625 11.722656 150.847656 13.859375 Z M 144.0625 13.859375"/><path style="stroke:none;fill-rule:nonzero;fill:#00843d;fill-opacity:1" d="M 163.210938 11.1875 L 163.253906 11.917969 C 164.714844 8.65625 166.457031 7.835938 167.808594 7.738281 C 168.34375 7.6875 169.464844 7.542969 170.53125 8.609375 L 170.53125 13.332031 C 169.269531 12.503906 167.910156 12.550781 167.132812 12.550781 C 165.488281 12.550781 163.210938 14.738281 163.210938 16.640625 L 163.210938 23.398438 L 158.308594 23.398438 L 158.308594 7.785156 L 163.210938 7.785156 L 163.210938 11.1875"/><path style="stroke:none;fill-rule:nonzero;fill:#00843d;fill-opacity:1" d="M 188.21875 19.554688 C 187.109375 20.375 186.71875 20.425781 186.382812 20.425781 C 185.898438 20.425781 185.558594 20.132812 185.558594 19.355469 L 185.558594 12.210938 C 185.558594 8.800781 182.886719 7.484375 178.964844 7.484375 C 176.492188 7.484375 174.214844 8.121094 172.175781 9.386719 L 172.175781 13.375 C 173.730469 11.765625 175.957031 10.742188 177.945312 10.742188 C 180.082031 10.742188 180.757812 11.917969 180.65625 13.375 C 174.113281 15.417969 171.398438 16.195312 171.398438 19.941406 C 171.398438 21.933594 173.246094 23.785156 175.765625 23.785156 C 177.460938 23.785156 179.011719 23.300781 180.949219 22.035156 C 181.292969 23.300781 182.066406 23.785156 183.664062 23.785156 C 184.972656 23.785156 186.910156 23.148438 188.269531 22.371094 L 188.269531 19.554688 M 180.65625 19.648438 C 179.839844 20.375 178.863281 20.820312 177.945312 20.820312 C 177.027344 20.820312 176.339844 20.042969 176.339844 19.160156 C 176.339844 17.605469 177.753906 16.925781 180.65625 15.851562 Z M 180.65625 19.648438"/><path style="stroke:none;fill-rule:nonzero;fill:#00843d;fill-opacity:1" d="M 200.777344 11.1875 L 195.109375 11.1875 L 195.109375 17.652344 C 195.109375 19.160156 195.976562 20.132812 197.476562 20.132812 C 198.496094 20.132812 199.421875 19.890625 200.777344 19.210938 L 200.777344 22.761719 C 199.03125 23.492188 197.769531 23.734375 196.269531 23.734375 C 193.019531 23.734375 190.207031 22.226562 190.207031 17.898438 L 190.207031 11.1875 L 187.976562 11.1875 L 187.976562 10.214844 L 194.523438 2.871094 L 195.15625 2.871094 L 195.15625 7.777344 L 200.824219 7.777344 L 200.824219 11.1875"/><path style="stroke:none;fill-rule:nonzero;fill:#00843d;fill-opacity:1" d="M 208.046875 2.71875 C 208.046875 4.226562 206.835938 5.441406 205.332031 5.441406 C 203.832031 5.441406 202.621094 4.226562 202.621094 2.71875 C 202.621094 1.210938 203.832031 -0.00390625 205.332031 -0.00390625 C 206.835938 -0.00390625 208.046875 1.210938 208.046875 2.71875 M 202.863281 7.777344 L 207.761719 7.777344 L 207.761719 23.390625 L 202.863281 23.390625 Z M 202.863281 7.777344"/><path style="stroke:none;fill-rule:nonzero;fill:#00843d;fill-opacity:1" d="M 208.78125 7.777344 L 213.964844 7.777344 L 217.3125 16.4375 L 220.652344 7.777344 L 225.84375 7.777344 L 218.664062 23.734375 L 215.953125 23.734375 L 208.78125 7.777344"/><path style="stroke:none;fill-rule:nonzero;fill:#00843d;fill-opacity:1" d="M 242.613281 19.554688 C 241.453125 20.375 241.0625 20.425781 240.769531 20.425781 C 240.242188 20.425781 239.953125 20.132812 239.953125 19.355469 L 239.953125 12.210938 C 239.953125 8.800781 237.28125 7.484375 233.355469 7.484375 C 230.886719 7.484375 228.605469 8.121094 226.570312 9.386719 L 226.570312 13.375 C 228.121094 11.765625 230.351562 10.742188 232.339844 10.742188 C 234.476562 10.742188 235.152344 11.917969 235.050781 13.375 C 228.507812 15.417969 225.792969 16.195312 225.792969 19.941406 C 225.792969 21.933594 227.640625 23.785156 230.160156 23.785156 C 231.855469 23.785156 233.40625 23.300781 235.292969 22.035156 C 235.636719 23.300781 236.414062 23.785156 238.058594 23.785156 C 239.367188 23.785156 241.304688 23.148438 242.664062 22.371094 L 242.664062 19.554688 M 235 19.648438 C 234.183594 20.375 233.214844 20.820312 232.289062 20.820312 C 231.421875 20.820312 230.695312 20.042969 230.695312 19.160156 C 230.695312 17.605469 232.097656 16.925781 235 15.851562 Z M 235 19.648438"/><path style="stroke:none;fill-rule:nonzero;fill:#00843d;fill-opacity:1" d="M 11.207031 28.023438 L 14.695312 34.105469 L 8.300781 45.195312 L 23.953125 45.195312 L 30.304688 34.105469 L 37.335938 34.105469 L 27.449219 51.277344 L 4.8125 51.277344 L 1.3125 45.195312 L 11.207031 28.023438"/><path style="stroke:none;fill-rule:nonzero;fill:#00843d;fill-opacity:1" d="M 30.304688 50.5625 L 33.84375 44.484375 L 46.601562 44.484375 L 38.746094 30.863281 L 25.988281 30.863281 L 22.5 24.78125 L 42.285156 24.78125 L 53.578125 44.484375 L 50.089844 50.5625 L 30.304688 50.5625"/><path style="stroke:none;fill-rule:nonzero;fill:#00843d;fill-opacity:1" d="M 40.121094 22.300781 L 33.144531 22.300781 L 26.742188 11.210938 L 18.894531 24.78125 L 25.289062 35.878906 L 21.800781 41.953125 L 11.90625 24.78125 L 23.25 5.132812 L 30.238281 5.132812 L 40.121094 22.300781"/><path style="stroke:none;fill-rule:nonzero;fill:#e2000f;fill-opacity:1" d="M 62.613281 33.074219 L 242.566406 33.074219 L 242.566406 35.847656 L 62.613281 35.847656 Z M 62.613281 33.074219"/><path style="stroke:none;fill-rule:nonzero;fill:#1d1d1b;fill-opacity:1" d="M 67.167969 51.945312 L 66.007812 51.945312 L 62.710938 42.273438 L 64.316406 42.273438 L 66.636719 49.324219 L 68.964844 42.273438 L 70.566406 42.273438 Z M 71.917969 51.945312 L 71.917969 42.273438 L 73.421875 42.273438 L 73.421875 51.945312 Z M 76.144531 51.945312 L 76.144531 42.273438 L 82.585938 42.273438 L 82.585938 43.578125 L 77.6875 43.578125 L 77.6875 46.402344 L 81.863281 46.402344 L 81.863281 47.714844 L 77.6875 47.714844 L 77.6875 50.632812 L 82.585938 50.632812 L 82.585938 51.945312 Z M 90.828125 51.945312 L 86.175781 45.136719 L 86.175781 51.945312 L 84.675781 51.945312 L 84.675781 42.273438 L 86.078125 42.273438 L 90.734375 49.082031 L 90.734375 42.273438 L 92.238281 42.273438 L 92.238281 51.945312 Z M 101.101562 51.945312 L 96.453125 45.136719 L 96.453125 51.945312 L 94.949219 51.945312 L 94.949219 42.273438 L 96.351562 42.273438 L 101.011719 49.082031 L 101.011719 42.273438 L 102.515625 42.273438 L 102.515625 51.945312 Z M 110.945312 51.945312 L 110.269531 50.003906 L 106.296875 50.003906 L 105.609375 51.945312 L 103.964844 51.945312 L 107.648438 42.273438 L 108.867188 42.273438 L 112.546875 51.945312 Z M 108.28125 44.457031 L 106.730469 48.738281 L 109.835938 48.738281 Z M 117.441406 51.945312 L 117.441406 42.273438 L 118.941406 42.273438 L 118.941406 51.945312 Z M 127.816406 51.945312 L 123.167969 45.136719 L 123.167969 51.945312 L 121.664062 51.945312 L 121.664062 42.273438 L 123.066406 42.273438 L 127.722656 49.082031 L 127.722656 42.273438 L 129.226562 42.273438 L 129.226562 51.945312 Z M 134.550781 51.996094 C 133.050781 51.996094 131.941406 51.652344 131.023438 50.730469 L 132.03125 49.761719 C 132.765625 50.488281 133.585938 50.679688 134.601562 50.679688 C 135.914062 50.679688 136.691406 50.144531 136.691406 49.222656 C 136.691406 48.789062 136.546875 48.445312 136.304688 48.203125 C 136.054688 47.960938 135.8125 47.859375 135.1875 47.816406 L 134.027344 47.667969 C 133.199219 47.574219 132.566406 47.28125 132.132812 46.886719 C 131.648438 46.453125 131.40625 45.824219 131.40625 45.042969 C 131.40625 43.335938 132.667969 42.222656 134.753906 42.222656 C 136.054688 42.222656 137.03125 42.554688 137.851562 43.335938 L 136.882812 44.265625 C 136.253906 43.679688 135.53125 43.535156 134.703125 43.535156 C 133.542969 43.535156 132.859375 44.164062 132.859375 45.042969 C 132.859375 45.378906 132.957031 45.722656 133.25 45.914062 C 133.492188 46.109375 133.925781 46.308594 134.359375 46.351562 L 135.53125 46.5 C 136.449219 46.644531 136.980469 46.835938 137.414062 47.230469 C 137.949219 47.667969 138.242188 48.394531 138.242188 49.222656 C 138.191406 50.925781 136.691406 51.996094 134.550781 51.996094 Z M 143.71875 51.996094 C 141.683594 51.996094 140.128906 50.632812 140.128906 48.636719 L 140.128906 42.222656 L 141.632812 42.222656 L 141.632812 48.546875 C 141.632812 49.859375 142.457031 50.632812 143.71875 50.632812 C 144.980469 50.632812 145.804688 49.859375 145.804688 48.546875 L 145.804688 42.222656 L 147.308594 42.222656 L 147.308594 48.636719 C 147.308594 50.679688 145.753906 51.996094 143.71875 51.996094 Z M 155.40625 51.945312 L 153.269531 47.859375 L 151.382812 47.859375 L 151.382812 51.945312 L 149.878906 51.945312 L 149.878906 42.273438 L 153.753906 42.273438 C 155.648438 42.273438 156.859375 43.4375 156.859375 45.085938 C 156.859375 46.453125 155.980469 47.371094 154.871094 47.667969 L 157.199219 51.945312 Z M 153.609375 43.578125 L 151.332031 43.578125 L 151.332031 46.59375 L 153.609375 46.59375 C 154.628906 46.59375 155.304688 46.066406 155.304688 45.085938 C 155.304688 44.113281 154.628906 43.578125 153.609375 43.578125 Z M 164.90625 51.945312 L 164.230469 50.003906 L 160.246094 50.003906 L 159.570312 51.945312 L 157.925781 51.945312 L 161.609375 42.273438 L 162.816406 42.273438 L 166.507812 51.945312 Z M 162.234375 44.457031 L 160.691406 48.738281 L 163.785156 48.738281 Z M 174.164062 51.945312 L 169.511719 45.136719 L 169.511719 51.945312 L 168.011719 51.945312 L 168.011719 42.273438 L 169.414062 42.273438 L 174.070312 49.082031 L 174.070312 42.273438 L 175.574219 42.273438 L 175.574219 51.945312 Z M 181.484375 51.996094 C 180.414062 51.996094 179.546875 51.613281 178.863281 50.976562 C 177.894531 50.003906 177.894531 48.929688 177.894531 47.089844 C 177.894531 45.238281 177.894531 44.164062 178.863281 43.191406 C 179.546875 42.515625 180.464844 42.171875 181.484375 42.171875 C 182.746094 42.171875 183.570312 42.605469 184.296875 43.292969 L 183.277344 44.265625 C 182.746094 43.78125 182.308594 43.4375 181.484375 43.4375 C 180.898438 43.4375 180.367188 43.628906 179.980469 44.023438 C 179.496094 44.558594 179.398438 45.085938 179.398438 47.039062 C 179.398438 48.980469 179.496094 49.515625 179.980469 50.054688 C 180.324219 50.4375 180.859375 50.632812 181.484375 50.632812 C 182.308594 50.632812 182.746094 50.347656 183.277344 49.808594 L 184.296875 50.78125 C 183.519531 51.5625 182.695312 51.996094 181.484375 51.996094 Z M 186.382812 51.945312 L 186.382812 42.273438 L 192.828125 42.273438 L 192.828125 43.578125 L 187.929688 43.578125 L 187.929688 46.402344 L 192.101562 46.402344 L 192.101562 47.714844 L 187.929688 47.714844 L 187.929688 50.632812 L 192.828125 50.632812 L 192.828125 51.945312 Z M 204.316406 50.882812 C 203.589844 51.613281 202.671875 51.996094 201.550781 51.996094 C 200.492188 51.996094 199.617188 51.613281 198.9375 50.976562 C 197.972656 50.003906 197.972656 48.929688 197.972656 47.089844 C 197.972656 45.238281 197.972656 44.164062 198.9375 43.191406 C 199.617188 42.515625 200.492188 42.171875 201.550781 42.171875 C 202.914062 42.171875 203.6875 42.554688 204.605469 43.4375 L 203.589844 44.40625 C 202.960938 43.78125 202.480469 43.4375 201.601562 43.4375 C 201.019531 43.4375 200.441406 43.679688 200.097656 44.023438 C 199.617188 44.558594 199.515625 45.085938 199.515625 47.039062 C 199.515625 48.980469 199.617188 49.515625 200.097656 50.054688 C 200.441406 50.4375 201.019531 50.632812 201.601562 50.632812 C 202.277344 50.632812 202.8125 50.386719 203.203125 49.953125 C 203.589844 49.566406 203.6875 49.03125 203.6875 48.394531 L 203.6875 47.859375 L 201.601562 47.859375 L 201.601562 46.59375 L 205.242188 46.59375 L 205.242188 48.058594 C 205.242188 49.417969 205 50.195312 204.316406 50.882812 Z M 212.996094 51.945312 L 210.859375 47.859375 L 208.972656 47.859375 L 208.972656 51.945312 L 207.421875 51.945312 L 207.421875 42.273438 L 211.300781 42.273438 C 213.1875 42.273438 214.398438 43.4375 214.398438 45.085938 C 214.398438 46.453125 213.53125 47.371094 212.414062 47.667969 L 214.742188 51.945312 Z M 211.253906 43.578125 L 208.972656 43.578125 L 208.972656 46.59375 L 211.253906 46.59375 C 212.269531 46.59375 212.945312 46.066406 212.945312 45.085938 C 212.945312 44.113281 212.269531 43.578125 211.253906 43.578125 Z M 222.648438 50.976562 C 221.960938 51.652344 221.042969 51.996094 219.976562 51.996094 C 218.90625 51.996094 218.039062 51.613281 217.363281 50.976562 C 216.386719 50.003906 216.386719 48.929688 216.386719 47.089844 C 216.386719 45.238281 216.386719 44.164062 217.363281 43.191406 C 218.039062 42.515625 218.90625 42.171875 219.976562 42.171875 C 221.042969 42.171875 221.960938 42.554688 222.648438 43.191406 C 223.613281 44.164062 223.613281 45.238281 223.613281 47.089844 C 223.613281 48.929688 223.613281 50.003906 222.648438 50.976562 Z M 221.476562 44.0625 C 221.136719 43.679688 220.558594 43.488281 219.976562 43.488281 C 219.390625 43.488281 218.816406 43.730469 218.472656 44.0625 C 217.988281 44.601562 217.886719 45.136719 217.886719 47.089844 C 217.886719 49.03125 217.988281 49.566406 218.472656 50.105469 C 218.816406 50.488281 219.390625 50.679688 219.976562 50.679688 C 220.558594 50.679688 221.136719 50.4375 221.476562 50.105469 C 221.960938 49.566406 222.0625 49.03125 222.0625 47.089844 C 222.0625 45.136719 221.960938 44.601562 221.476562 44.0625 Z M 229.332031 51.996094 C 227.296875 51.996094 225.742188 50.632812 225.742188 48.636719 L 225.742188 42.222656 L 227.246094 42.222656 L 227.246094 48.546875 C 227.246094 49.859375 228.074219 50.632812 229.332031 50.632812 C 230.59375 50.632812 231.421875 49.859375 231.421875 48.546875 L 231.421875 42.222656 L 232.921875 42.222656 L 232.921875 48.636719 C 232.972656 50.679688 231.371094 51.996094 229.332031 51.996094 Z M 239.265625 48.101562 L 236.996094 48.101562 L 236.996094 51.894531 L 235.484375 51.894531 L 235.484375 42.222656 L 239.316406 42.222656 C 241.304688 42.222656 242.523438 43.488281 242.523438 45.136719 C 242.523438 46.886719 241.261719 48.101562 239.265625 48.101562 Z M 239.226562 43.578125 L 236.996094 43.578125 L 236.996094 46.796875 L 239.175781 46.796875 C 240.242188 46.796875 240.96875 46.207031 240.96875 45.1875 C 240.96875 44.164062 240.242188 43.578125 239.226562 43.578125 Z M 239.226562 43.578125"/></g></svg>