<svg xmlns="http://www.w3.org/2000/svg" xmlns:xlink="http://www.w3.org/1999/xlink" version="1.1" viewBox="0.14 0 243.71 52">
  <g id="surface1">
<path style=" stroke:none;fill-rule:nonzero;fill:rgb(45.09804%,45.09804%,45.09804%);fill-opacity:1;" d="M 101.5 10.398438 L 101.5 41.601562 L 96.085938 41.601562 L 96.085938 17.117188 L 96.011719 17.117188 L 86.339844 41.601562 L 82.730469 41.601562 L 72.839844 17.117188 L 72.765625 17.117188 L 72.765625 41.601562 L 67.785156 41.601562 L 67.785156 10.398438 L 75.582031 10.398438 L 84.535156 33.511719 L 84.679688 33.511719 L 94.136719 10.398438 Z M 105.972656 12.785156 C 105.972656 11.917969 106.261719 11.195312 106.914062 10.617188 C 107.5625 10.039062 108.285156 9.75 109.148438 9.75 C 110.089844 9.75 110.882812 10.039062 111.460938 10.617188 C 112.039062 11.195312 112.398438 11.917969 112.398438 12.785156 C 112.398438 13.648438 112.109375 14.371094 111.460938 14.949219 C 110.8125 15.527344 110.089844 15.816406 109.148438 15.816406 C 108.210938 15.816406 107.488281 15.527344 106.914062 14.949219 C 106.335938 14.300781 105.972656 13.578125 105.972656 12.785156 Z M 111.820312 19.210938 L 111.820312 41.601562 L 106.550781 41.601562 L 106.550781 19.210938 Z M 127.773438 37.773438 C 128.570312 37.773438 129.433594 37.628906 130.375 37.195312 C 131.3125 36.832031 132.179688 36.328125 132.972656 35.75 L 132.972656 40.660156 C 132.105469 41.167969 131.167969 41.527344 130.085938 41.746094 C 129.003906 41.960938 127.847656 42.105469 126.546875 42.105469 C 123.226562 42.105469 120.554688 41.09375 118.535156 39 C 116.441406 36.90625 115.429688 34.234375 115.429688 31.054688 C 115.429688 27.445312 116.511719 24.484375 118.605469 22.171875 C 120.699219 19.859375 123.660156 18.707031 127.558594 18.707031 C 128.570312 18.707031 129.578125 18.851562 130.519531 19.066406 C 131.527344 19.285156 132.324219 19.644531 132.902344 19.933594 L 132.902344 24.988281 C 132.105469 24.410156 131.242188 23.90625 130.445312 23.617188 C 129.578125 23.328125 128.714844 23.109375 127.847656 23.109375 C 125.753906 23.109375 124.09375 23.761719 122.792969 25.132812 C 121.496094 26.503906 120.917969 28.3125 120.917969 30.621094 C 120.917969 32.859375 121.566406 34.667969 122.792969 35.894531 C 124.019531 37.121094 125.683594 37.773438 127.773438 37.773438 Z M 147.914062 18.851562 C 148.347656 18.851562 148.710938 18.851562 149.070312 18.921875 C 149.433594 18.996094 149.722656 19.066406 149.9375 19.140625 L 149.9375 24.484375 C 149.648438 24.265625 149.289062 24.050781 148.710938 23.90625 C 148.132812 23.761719 147.554688 23.617188 146.761719 23.617188 C 145.460938 23.617188 144.378906 24.195312 143.511719 25.277344 C 142.644531 26.359375 142.140625 28.023438 142.140625 30.332031 L 142.140625 41.601562 L 136.871094 41.601562 L 136.871094 19.210938 L 142.140625 19.210938 L 142.140625 22.75 L 142.214844 22.75 C 142.71875 21.523438 143.441406 20.582031 144.378906 19.859375 C 145.390625 19.210938 146.542969 18.851562 147.914062 18.851562 Z M 150.226562 30.765625 C 150.226562 27.082031 151.308594 24.121094 153.332031 21.957031 C 155.421875 19.789062 158.3125 18.707031 161.992188 18.707031 C 165.457031 18.707031 168.203125 19.714844 170.148438 21.8125 C 172.097656 23.90625 173.109375 26.722656 173.109375 30.261719 C 173.109375 33.871094 172.027344 36.761719 170.007812 38.929688 C 167.914062 41.09375 165.097656 42.179688 161.488281 42.179688 C 158.023438 42.179688 155.277344 41.167969 153.257812 39.144531 C 151.238281 37.050781 150.226562 34.234375 150.226562 30.765625 Z M 155.710938 30.550781 C 155.710938 32.859375 156.21875 34.667969 157.300781 35.894531 C 158.382812 37.121094 159.898438 37.773438 161.847656 37.773438 C 163.726562 37.773438 165.242188 37.195312 166.253906 35.894531 C 167.261719 34.667969 167.769531 32.859375 167.769531 30.40625 C 167.769531 28.023438 167.261719 26.214844 166.253906 24.917969 C 165.242188 23.6875 163.726562 23.039062 161.921875 23.039062 C 159.972656 23.039062 158.527344 23.6875 157.445312 24.988281 C 156.21875 26.359375 155.710938 28.167969 155.710938 30.550781 Z M 180.980469 25.132812 C 180.980469 25.855469 181.195312 26.503906 181.699219 26.9375 C 182.207031 27.371094 183.214844 27.878906 184.875 28.527344 C 186.96875 29.394531 188.488281 30.332031 189.28125 31.34375 C 190.148438 32.429688 190.578125 33.65625 190.578125 35.171875 C 190.578125 37.265625 189.785156 38.929688 188.125 40.226562 C 186.539062 41.527344 184.300781 42.105469 181.554688 42.105469 C 180.617188 42.105469 179.605469 41.960938 178.453125 41.746094 C 177.296875 41.527344 176.359375 41.238281 175.566406 40.878906 L 175.566406 35.679688 C 176.503906 36.328125 177.585938 36.90625 178.667969 37.265625 C 179.75 37.628906 180.761719 37.84375 181.699219 37.84375 C 182.855469 37.84375 183.792969 37.699219 184.300781 37.339844 C 184.875 36.976562 185.164062 36.472656 185.164062 35.679688 C 185.164062 34.957031 184.875 34.378906 184.300781 33.800781 C 183.722656 33.292969 182.566406 32.714844 180.980469 32.066406 C 179.03125 31.273438 177.65625 30.332031 176.863281 29.320312 C 176.070312 28.3125 175.636719 27.011719 175.636719 25.421875 C 175.636719 23.398438 176.429688 21.738281 178.019531 20.4375 C 179.605469 19.140625 181.699219 18.488281 184.226562 18.488281 C 185.019531 18.488281 185.886719 18.5625 186.824219 18.777344 C 187.765625 18.996094 188.628906 19.210938 189.28125 19.429688 L 189.28125 24.554688 C 188.558594 24.121094 187.765625 23.6875 186.824219 23.328125 C 185.886719 22.964844 184.949219 22.820312 184.082031 22.820312 C 183.070312 22.820312 182.277344 23.039062 181.773438 23.398438 C 181.265625 23.90625 180.980469 24.410156 180.980469 25.132812 Z M 192.816406 30.765625 C 192.816406 27.082031 193.902344 24.121094 195.921875 21.957031 C 198.015625 19.789062 200.902344 18.707031 204.585938 18.707031 C 208.050781 18.707031 210.792969 19.714844 212.742188 21.8125 C 214.691406 23.90625 215.703125 26.722656 215.703125 30.261719 C 215.703125 33.871094 214.617188 36.761719 212.597656 38.929688 C 210.503906 41.09375 207.6875 42.179688 204.078125 42.179688 C 200.613281 42.179688 197.871094 41.167969 195.851562 39.144531 C 193.902344 37.050781 192.816406 34.234375 192.816406 30.765625 Z M 198.304688 30.550781 C 198.304688 32.859375 198.808594 34.667969 199.890625 35.894531 C 200.976562 37.121094 202.492188 37.773438 204.441406 37.773438 C 206.316406 37.773438 207.832031 37.195312 208.84375 35.894531 C 209.855469 34.667969 210.359375 32.859375 210.359375 30.40625 C 210.359375 28.023438 209.855469 26.214844 208.84375 24.917969 C 207.832031 23.6875 206.316406 23.039062 204.511719 23.039062 C 202.5625 23.039062 201.121094 23.6875 200.035156 24.988281 C 198.882812 26.359375 198.304688 28.167969 198.304688 30.550781 Z M 233.242188 23.542969 L 225.375 23.542969 L 225.375 41.601562 L 220.03125 41.601562 L 220.03125 23.542969 L 216.277344 23.542969 L 216.277344 19.210938 L 220.03125 19.210938 L 220.03125 16.105469 C 220.03125 13.792969 220.828125 11.84375 222.34375 10.328125 C 223.859375 8.8125 225.808594 8.089844 228.191406 8.089844 C 228.839844 8.089844 229.417969 8.160156 229.921875 8.160156 C 230.429688 8.160156 230.863281 8.304688 231.222656 8.449219 L 231.222656 13 C 231.078125 12.929688 230.71875 12.785156 230.285156 12.640625 C 229.851562 12.496094 229.34375 12.421875 228.769531 12.421875 C 227.683594 12.421875 226.820312 12.785156 226.242188 13.433594 C 225.664062 14.082031 225.375 15.167969 225.375 16.464844 L 225.375 19.140625 L 233.242188 19.140625 L 233.242188 14.082031 L 238.511719 12.496094 L 238.511719 19.140625 L 243.855469 19.140625 L 243.855469 23.472656 L 238.511719 23.472656 L 238.511719 33.945312 C 238.511719 35.316406 238.800781 36.253906 239.234375 36.832031 C 239.742188 37.410156 240.535156 37.699219 241.617188 37.699219 C 241.90625 37.699219 242.265625 37.628906 242.699219 37.484375 C 243.132812 37.339844 243.496094 37.195312 243.785156 36.976562 L 243.785156 41.3125 C 243.421875 41.527344 242.917969 41.671875 242.125 41.816406 C 241.328125 41.960938 240.605469 42.035156 239.8125 42.035156 C 237.574219 42.035156 235.914062 41.457031 234.832031 40.300781 C 233.75 39.144531 233.171875 37.339844 233.171875 34.957031 Z M 233.242188 23.542969 "/>
<path style=" stroke:none;fill-rule:nonzero;fill:rgb(94.901961%,31.37255%,13.333334%);fill-opacity:1;" d="M 0.144531 0 L 24.832031 0 L 24.832031 24.699219 L 0.144531 24.699219 Z M 0.144531 0 "/>
<path style=" stroke:none;fill-rule:nonzero;fill:rgb(49.803922%,72.941178%,0%);fill-opacity:1;" d="M 27.433594 0 L 52.121094 0 L 52.121094 24.699219 L 27.433594 24.699219 Z M 27.433594 0 "/>
<path style=" stroke:none;fill-rule:nonzero;fill:rgb(0%,64.313728%,93.725491%);fill-opacity:1;" d="M 0.144531 27.300781 L 24.832031 27.300781 L 24.832031 52 L 0.144531 52 Z M 0.144531 27.300781 "/>
<path style=" stroke:none;fill-rule:nonzero;fill:rgb(100%,72.549021%,0%);fill-opacity:1;" d="M 27.433594 27.300781 L 52.121094 27.300781 L 52.121094 52 L 27.433594 52 Z M 27.433594 27.300781 "/>
</g>

</svg>