<svg xmlns="http://www.w3.org/2000/svg" xmlns:xlink="http://www.w3.org/1999/xlink" version="1.1" viewBox="0 0 193.05 42.86">
<g id="surface1">
<path style=" stroke:none;fill-rule:nonzero;fill:rgb(0%,65.882355%,62.352943%);fill-opacity:1;" d="M 0 0.589844 L 19.378906 0.589844 L 19.378906 19.96875 L 0 19.96875 Z M 0 0.589844 "/>
<path style=" stroke:none;fill-rule:nonzero;fill:rgb(11.764706%,25.490198%,48.627451%);fill-opacity:1;" d="M 8.28125 21.421875 C 8.28125 28.351562 13.898438 33.96875 20.828125 33.96875 C 27.761719 33.96875 33.378906 28.351562 33.378906 21.421875 C 33.378906 14.488281 27.761719 8.871094 20.828125 8.871094 C 13.898438 8.871094 8.28125 14.488281 8.28125 21.421875 "/>
<path style=" stroke:none;fill-rule:nonzero;fill:rgb(0%,65.882355%,62.352943%);fill-opacity:1;" d="M 0 22.859375 L 19.378906 22.859375 L 19.378906 42.238281 L 0 42.238281 Z M 0 22.859375 "/>
<path style=" stroke:none;fill-rule:nonzero;fill:rgb(0%,65.882355%,62.352943%);fill-opacity:1;" d="M 22.269531 0.589844 L 41.648438 0.589844 L 41.648438 19.96875 L 22.269531 19.96875 Z M 22.269531 0.589844 "/>
<path style=" stroke:none;fill-rule:nonzero;fill:rgb(50.196081%,50.196081%,51.372552%);fill-opacity:1;" d="M 56.28125 42.25 L 63.640625 42.25 L 63.640625 27.730469 L 72.800781 27.730469 L 83.03125 42.25 L 91.640625 42.25 L 80.390625 26.480469 C 86.21875 24.808594 90.328125 20.710938 90.328125 13.871094 L 90.328125 13.75 C 90.417969 10.410156 89.179688 7.171875 86.878906 4.75 C 84.199219 2.128906 80.101562 0.589844 74.878906 0.589844 L 56.28125 0.589844 Z M 63.601562 21.25 L 63.601562 7.25 L 74.25 7.25 C 79.660156 7.25 82.878906 9.691406 82.878906 14.148438 L 82.878906 14.269531 C 82.878906 18.488281 79.550781 21.269531 74.308594 21.269531 L 63.640625 21.269531 Z M 109.601562 42.25 L 115.859375 42.25 L 126.019531 12.539062 L 136.179688 42.25 L 142.441406 42.25 L 156.851562 0.609375 L 149.238281 0.609375 L 139.378906 31.269531 L 129.21875 0.488281 L 123.078125 0.488281 L 112.921875 31.269531 L 103.058594 0.609375 L 95.199219 0.609375 Z M 178.179688 42.851562 C 186.929688 42.851562 193.050781 38.210938 193.050781 30.421875 L 193.050781 30.300781 C 193.050781 23.398438 188.46875 20.238281 179.660156 18.101562 C 171.660156 16.199219 169.78125 14.769531 169.78125 11.558594 L 169.78125 11.421875 C 169.78125 8.679688 172.28125 6.480469 176.558594 6.480469 C 180.371094 6.480469 184.121094 7.96875 187.859375 10.761719 L 191.789062 5.230469 C 187.539062 1.742188 182.179688 -0.113281 176.679688 0 C 168.410156 0 162.460938 4.941406 162.460938 12.078125 L 162.460938 12.199219 C 162.460938 19.878906 167.460938 22.488281 176.320312 24.640625 C 184.050781 26.429688 185.71875 28.03125 185.71875 31.011719 L 185.71875 31.128906 C 185.71875 34.28125 182.871094 36.371094 178.339844 36.371094 C 173.160156 36.371094 169.179688 34.371094 165.191406 30.960938 L 160.789062 36.199219 C 165.542969 40.515625 171.742188 42.890625 178.160156 42.859375 "/>
</g>
</svg>