<svg xmlns="http://www.w3.org/2000/svg" xmlns:xlink="http://www.w3.org/1999/xlink" version="1.1" viewBox="1.23 0 247.54 47"><g id="surface1"><path style="stroke:none;fill-rule:nonzero;fill:#2c3c45;fill-opacity:1" d="M 10.03125 0 L 25.609375 0 L 25.710938 0.101562 L 25.710938 6.382812 L 25.609375 6.484375 L 11.144531 6.484375 C 9.523438 6.484375 8.511719 6.988281 8.007812 8.101562 C 7.8125 8.480469 7.707031 8.894531 7.703125 9.320312 C 7.691406 10.648438 8.628906 11.796875 9.929688 12.054688 C 10.136719 12.039062 10.34375 12.074219 10.535156 12.15625 L 18.324219 12.15625 C 22.878906 12.039062 27.125 14.457031 29.351562 18.433594 C 30.25 20.050781 30.769531 21.855469 30.871094 23.703125 L 30.871094 25.121094 C 30.722656 28.105469 29.460938 30.925781 27.328125 33.023438 C 24.699219 35.351562 22.070312 36.566406 19.4375 36.566406 L 1.332031 36.566406 L 1.230469 36.464844 L 1.230469 30.085938 L 1.332031 29.984375 L 18.527344 29.984375 C 21.15625 29.984375 23.082031 28.664062 24.191406 25.929688 C 24.316406 25.398438 24.382812 24.855469 24.394531 24.308594 C 24.449219 22.066406 23.125 20.015625 21.058594 19.144531 C 20.246094 18.726562 19.332031 18.550781 18.425781 18.636719 L 10.433594 18.636719 C 7.3125 18.632812 4.410156 17.027344 2.746094 14.382812 C 1.839844 12.996094 1.347656 11.382812 1.332031 9.722656 L 1.332031 8.8125 C 1.402344 6.625 2.265625 4.535156 3.757812 2.9375 C 5.363281 1.144531 7.628906 0.0820312 10.03125 0 Z M 10.03125 0"/><path style="stroke:none;fill-rule:nonzero;fill:#2c3c45;fill-opacity:1" d="M 44.730469 12.054688 L 45.640625 12.054688 C 48.871094 12.152344 51.929688 13.539062 54.136719 15.902344 C 56.316406 13.5 59.394531 12.109375 62.632812 12.054688 L 63.542969 12.054688 C 66.777344 12.152344 69.835938 13.539062 72.042969 15.902344 C 73.371094 17.382812 74.339844 19.152344 74.875 21.070312 C 75.066406 21.902344 75.203125 22.75 75.277344 23.601562 L 75.277344 36.363281 L 75.179688 36.464844 L 68.90625 36.464844 L 68.804688 36.363281 L 68.804688 24.308594 C 68.894531 21.742188 67.226562 19.445312 64.757812 18.738281 C 64.328125 18.621094 63.886719 18.554688 63.445312 18.535156 L 62.632812 18.535156 C 60.8125 18.535156 59.195312 19.550781 57.878906 21.472656 C 57.433594 22.425781 57.191406 23.460938 57.171875 24.511719 L 57.171875 36.363281 L 57.070312 36.464844 L 50.898438 36.464844 L 50.796875 36.363281 L 50.796875 24.109375 C 50.78125 21.992188 49.566406 20.066406 47.664062 19.144531 C 46.933594 18.789062 46.144531 18.582031 45.335938 18.535156 L 44.828125 18.535156 C 42.90625 18.535156 41.390625 19.550781 40.074219 21.574219 C 39.488281 22.769531 39.242188 24.101562 39.367188 25.425781 L 39.367188 36.363281 L 39.265625 36.464844 L 32.992188 36.464844 L 32.894531 36.363281 L 32.894531 23.804688 C 32.894531 20.5625 34.308594 17.625 37.140625 14.890625 C 39.285156 13.125 41.953125 12.125 44.730469 12.054688 Z M 44.730469 12.054688"/><path style="stroke:none;fill-rule:nonzero;fill:#2c3c45;fill-opacity:1" d="M 89.238281 12.265625 L 90.121094 12.265625 C 96.621094 12.441406 101.816406 17.738281 101.875 24.25 L 101.875 36.464844 L 101.804688 36.566406 L 95.511719 36.566406 L 95.410156 36.464844 L 95.410156 35.148438 C 93.683594 36.058594 91.757812 36.535156 89.804688 36.535156 L 89.582031 36.535156 C 83.117188 36.449219 77.851562 31.300781 77.617188 24.828125 L 77.617188 23.945312 C 77.617188 20.914062 78.917969 18.066406 81.519531 15.40625 C 83.636719 13.472656 86.375 12.359375 89.238281 12.265625 Z M 89.390625 18.738281 C 87.507812 18.738281 85.941406 19.753906 84.667969 21.777344 C 84.25 22.605469 84.019531 23.515625 83.988281 24.441406 C 83.984375 26.660156 85.273438 28.675781 87.289062 29.597656 C 87.992188 29.933594 88.761719 30.113281 89.542969 30.125 L 89.816406 30.125 C 91.914062 30.128906 93.828125 28.925781 94.742188 27.035156 C 95.152344 26.273438 95.367188 25.425781 95.371094 24.5625 L 95.371094 24.289062 C 95.335938 21.320312 92.984375 18.898438 90.019531 18.78125 Z M 89.390625 18.738281"/><path style="stroke:none;fill-rule:nonzero;fill:#2c3c45;fill-opacity:1" d="M 116.25 11.648438 L 123.835938 11.648438 L 123.9375 11.75 L 123.9375 18.132812 L 123.835938 18.234375 L 117.765625 18.234375 C 115.441406 18.234375 113.820312 18.738281 113.011719 19.652344 C 112.375 20.175781 111.859375 20.832031 111.496094 21.574219 C 111.015625 22.691406 110.808594 23.90625 110.886719 25.121094 L 110.886719 36.363281 L 110.785156 36.464844 L 104.515625 36.464844 L 104.414062 36.363281 L 104.414062 23.601562 C 104.414062 20.5625 105.730469 17.625 108.359375 14.890625 C 110.535156 12.925781 113.324219 11.78125 116.25 11.648438 Z M 116.25 11.648438"/><path style="stroke:none;fill-rule:nonzero;fill:#2c3c45;fill-opacity:1" d="M 126.265625 0 L 132.433594 0 L 132.535156 0.101562 L 132.535156 12.15625 L 140.125 12.15625 L 140.226562 12.257812 L 140.226562 18.535156 L 140.125 18.636719 L 132.535156 18.636719 L 132.535156 23.296875 C 132.535156 25.324219 132.839844 26.742188 133.546875 27.550781 C 134.714844 29.234375 136.664062 30.191406 138.707031 30.085938 L 140.125 30.085938 L 140.226562 30.183594 L 140.226562 36.363281 L 140.125 36.464844 L 137.796875 36.464844 C 134.792969 36.382812 131.929688 35.152344 129.804688 33.023438 C 127.542969 30.84375 126.234375 27.855469 126.164062 24.714844 Z M 126.265625 0"/><path style="stroke:none;fill-rule:nonzero;fill:#4088e6;fill-opacity:1" d="M 170.976562 12.15625 L 177.148438 12.15625 L 177.25 12.257812 L 177.25 23.296875 C 177.25 25.425781 177.65625 26.945312 178.464844 27.753906 C 179.507812 29.097656 181.113281 29.882812 182.8125 29.882812 L 183.117188 29.882812 C 185.34375 29.882812 187.0625 28.765625 188.277344 26.4375 C 188.507812 25.75 188.644531 25.035156 188.679688 24.308594 L 188.679688 12.15625 L 188.78125 12.054688 L 195.054688 12.054688 L 195.15625 12.15625 L 195.15625 24.210938 C 195.15625 28.464844 193.234375 31.90625 189.390625 34.539062 C 187.535156 35.695312 185.402344 36.324219 183.21875 36.363281 L 182.914062 36.363281 C 179.101562 36.355469 175.523438 34.507812 173.304688 31.402344 C 171.882812 29.453125 171.074219 27.125 170.976562 24.714844 Z M 170.976562 12.15625"/><path style="stroke:none;fill-rule:nonzero;fill:#4088e6;fill-opacity:1" d="M 209.417969 10.535156 L 210.328125 10.535156 C 216.8125 10.714844 221.996094 15.992188 222.0625 22.488281 L 222.0625 22.691406 C 222.066406 26.773438 220.011719 30.582031 216.601562 32.820312 C 214.628906 34.152344 212.304688 34.859375 209.925781 34.84375 L 209.722656 34.84375 C 207.78125 34.832031 205.871094 34.34375 204.160156 33.425781 L 204.160156 46.898438 L 204.058594 47 L 197.785156 47 L 197.683594 46.898438 L 197.683594 22.285156 C 197.683594 19.246094 199 16.410156 201.628906 13.777344 C 203.730469 11.761719 206.511719 10.605469 209.417969 10.535156 Z M 209.824219 17.015625 L 209.621094 17.015625 C 207.699219 17.015625 206.183594 18.03125 204.867188 20.054688 C 204.464844 20.917969 204.226562 21.84375 204.160156 22.789062 C 204.160156 25.019531 205.464844 27.042969 207.496094 27.957031 C 208.230469 28.28125 209.023438 28.453125 209.824219 28.464844 L 210.128906 28.464844 C 212.25 28.472656 214.183594 27.25 215.085938 25.324219 C 215.472656 24.570312 215.683594 23.738281 215.691406 22.890625 L 215.691406 22.589844 C 215.675781 20.472656 214.457031 18.546875 212.554688 17.625 C 211.84375 17.328125 211.09375 17.125 210.328125 17.015625 Z M 209.824219 17.015625"/><path style="stroke:none;fill-rule:nonzero;fill:#4088e6;fill-opacity:1" d="M 236.125 10.535156 L 237.035156 10.535156 C 243.519531 10.714844 248.703125 15.992188 248.769531 22.488281 L 248.769531 22.691406 C 248.773438 26.773438 246.71875 30.582031 243.308594 32.820312 C 241.335938 34.152344 239.011719 34.859375 236.632812 34.84375 L 236.429688 34.84375 C 234.488281 34.832031 232.578125 34.34375 230.863281 33.425781 L 230.863281 46.898438 L 230.765625 47 L 224.492188 47 L 224.390625 46.898438 L 224.390625 22.285156 C 224.390625 19.246094 225.707031 16.410156 228.335938 13.777344 C 230.4375 11.761719 233.214844 10.605469 236.125 10.535156 Z M 236.53125 17.015625 L 236.328125 17.015625 C 234.40625 17.015625 232.886719 18.03125 231.574219 20.054688 C 231.171875 20.917969 230.933594 21.84375 230.863281 22.789062 C 230.863281 25.019531 232.171875 27.042969 234.203125 27.957031 C 234.9375 28.28125 235.730469 28.453125 236.53125 28.464844 L 236.832031 28.464844 C 238.957031 28.472656 240.890625 27.25 241.789062 25.324219 C 242.179688 24.570312 242.386719 23.738281 242.398438 22.890625 L 242.398438 22.589844 C 242.382812 20.472656 241.164062 18.546875 239.261719 17.625 C 238.546875 17.328125 237.800781 17.125 237.035156 17.015625 Z M 236.53125 17.015625"/><path style="stroke:none;fill-rule:nonzero;fill:#fff;fill-opacity:1" d="M 209.925781 14.28125 C 214.339844 14.28125 217.917969 17.863281 217.917969 22.285156 C 217.917969 26.703125 214.339844 30.285156 209.925781 30.285156 C 205.511719 30.285156 201.933594 26.703125 201.933594 22.285156 C 201.917969 20.15625 202.757812 18.113281 204.257812 16.609375 C 205.761719 15.109375 207.800781 14.269531 209.925781 14.28125 Z M 209.925781 14.28125"/><path style="stroke:none;fill-rule:nonzero;fill:#2c3c45;fill-opacity:1" d="M 209.621094 17.117188 C 209.066406 17.121094 208.519531 17.222656 208.003906 17.421875 C 208.980469 17.617188 209.613281 18.570312 209.417969 19.550781 C 209.222656 20.527344 208.273438 21.164062 207.292969 20.96875 C 206.597656 20.859375 206.039062 20.335938 205.878906 19.652344 C 205.125 21.691406 206.167969 23.957031 208.207031 24.710938 C 210.242188 25.464844 212.507812 24.425781 213.261719 22.382812 C 214.015625 20.34375 212.972656 18.078125 210.9375 17.320312 C 210.507812 17.195312 210.066406 17.128906 209.621094 17.117188 Z M 209.621094 17.117188"/><path style="stroke:none;fill-rule:nonzero;fill:#fff;fill-opacity:1" d="M 236.328125 14.28125 C 240.742188 14.28125 244.320312 17.863281 244.320312 22.285156 C 244.320312 26.703125 240.742188 30.285156 236.328125 30.285156 C 231.914062 30.285156 228.335938 26.703125 228.335938 22.285156 C 228.324219 20.15625 229.160156 18.113281 230.660156 16.609375 C 232.164062 15.109375 234.203125 14.269531 236.328125 14.28125 Z M 236.328125 14.28125"/><path style="stroke:none;fill-rule:nonzero;fill:#2c3c45;fill-opacity:1" d="M 236.125 17.117188 C 235.570312 17.121094 235.023438 17.222656 234.507812 17.421875 C 235.484375 17.617188 236.117188 18.570312 235.921875 19.550781 C 235.726562 20.527344 234.777344 21.164062 233.796875 20.96875 C 233.101562 20.859375 232.542969 20.335938 232.382812 19.652344 C 231.628906 21.691406 232.671875 23.957031 234.710938 24.710938 C 236.746094 25.464844 239.011719 24.425781 239.765625 22.382812 C 240.519531 20.34375 239.476562 18.078125 237.441406 17.320312 C 237.011719 17.203125 236.570312 17.136719 236.125 17.117188 Z M 236.125 17.117188"/><path style="stroke:none;fill-rule:nonzero;fill:#4088e6;fill-opacity:1" d="M 151.757812 17.929688 L 165.515625 17.929688 L 165.515625 12.054688 L 151.757812 12.054688 C 147.621094 12.054688 144.269531 15.410156 144.269531 19.550781 C 144.269531 23.6875 147.621094 27.046875 151.757812 27.046875 L 160.863281 27.046875 C 161.753906 27.046875 162.480469 27.769531 162.480469 28.664062 C 162.480469 29.5625 161.753906 30.285156 160.863281 30.285156 L 144.269531 30.285156 L 144.269531 36.160156 L 160.863281 36.160156 C 164.96875 36.191406 168.320312 32.878906 168.347656 28.765625 C 168.375 24.65625 165.070312 21.300781 160.960938 21.273438 L 151.859375 21.273438 C 151.425781 21.277344 151.011719 21.109375 150.707031 20.804688 C 150.402344 20.496094 150.234375 20.082031 150.238281 19.652344 C 150.171875 19.210938 150.304688 18.769531 150.597656 18.4375 C 150.890625 18.101562 151.316406 17.917969 151.757812 17.929688 Z M 151.757812 17.929688"/></g></svg>